<svg id="Company_Introduction_Document_Submission_Icon" data-name="Company Introduction_Document Submission_Icon" xmlns="http://www.w3.org/2000/svg" xmlns:xlink="http://www.w3.org/1999/xlink" width="51.024" height="53.934" viewBox="0 0 51.024 53.934">
  <defs>
    <clipPath id="clip-path">
      <rect id="사각형_31" data-name="사각형 31" width="51.024" height="53.934" fill="none"/>
    </clipPath>
  </defs>
  <g id="그룹_31" data-name="그룹 31" transform="translate(0 0)" clip-path="url(#clip-path)">
    <path id="패스_224" data-name="패스 224" d="M41.353,62.1H1.412A1.412,1.412,0,0,1,0,60.692V17.048a1.412,1.412,0,0,1,1.412-1.412h39.94a1.412,1.412,0,0,1,1.412,1.412V60.692A1.412,1.412,0,0,1,41.353,62.1M2.824,59.28H39.941V18.46H2.824Z" transform="translate(0 -8.17)" fill="#595656"/>
    <path id="패스_225" data-name="패스 225" d="M71.593,19.792l3.814-3.814-3.814-3.813V6.771H66.2L62.386,2.957,58.573,6.771H53.18v5.393l-3.814,3.813,3.814,3.814v5.393h5.393L62.386,29,66.2,25.185h5.393Z" transform="translate(-25.795 -1.545)" fill="#ff8265"/>
    <path id="패스_226" data-name="패스 226" d="M60.842,28.865a1.413,1.413,0,0,1-1-.413l-3.4-3.4H51.635a1.412,1.412,0,0,1-1.412-1.412V18.832l-3.4-3.4a1.414,1.414,0,0,1,0-2l3.4-3.4V5.226a1.412,1.412,0,0,1,1.412-1.412h4.808l3.4-3.4a1.414,1.414,0,0,1,2,0l3.4,3.4h4.808A1.411,1.411,0,0,1,71.46,5.226v4.808l3.4,3.4a1.413,1.413,0,0,1,0,2l-3.4,3.4V23.64a1.412,1.412,0,0,1-1.412,1.412H65.24l-3.4,3.4a1.412,1.412,0,0,1-1,.413m-7.795-6.638h3.981a1.415,1.415,0,0,1,1,.413l2.815,2.816,2.815-2.815a1.41,1.41,0,0,1,1-.414h3.981V18.246a1.414,1.414,0,0,1,.413-1l2.815-2.815L69.05,11.618a1.412,1.412,0,0,1-.414-1V6.638H64.655a1.41,1.41,0,0,1-1-.414L60.842,3.41,58.027,6.225a1.414,1.414,0,0,1-1,.413H53.047v3.981a1.412,1.412,0,0,1-.414,1l-2.815,2.814,2.816,2.815a1.415,1.415,0,0,1,.413,1Z" transform="translate(-24.25 0)" fill="#ff8265"/>
    <path id="패스_227" data-name="패스 227" d="M65.895,32.043h0a1.411,1.411,0,0,1-1-.414l-4.1-4.1a1.412,1.412,0,0,1,2-2l3.1,3.1,7.6-7.6a1.413,1.413,0,0,1,2,2l-8.6,8.6a1.414,1.414,0,0,1-1,.413" transform="translate(-31.552 -10.776)" fill="#595656"/>
    <path id="패스_228" data-name="패스 228" d="M34.859,94.908H15.815a1.412,1.412,0,0,1,0-2.824H34.859a1.412,1.412,0,1,1,0,2.824" transform="translate(-7.526 -48.116)" fill="#595656"/>
    <path id="패스_229" data-name="패스 229" d="M23.75,82.721H15.814a1.412,1.412,0,1,1,0-2.824H23.75a1.412,1.412,0,0,1,0,2.824" transform="translate(-7.525 -41.748)" fill="#595656"/>
    <path id="패스_230" data-name="패스 230" d="M27.454,70.534H15.815a1.412,1.412,0,1,1,0-2.824H27.454a1.412,1.412,0,1,1,0,2.824" transform="translate(-7.526 -35.38)" fill="#595656"/>
  </g>
</svg>
