<svg id="city_illustration_line" data-name="city ​​illustration line" xmlns="http://www.w3.org/2000/svg" width="1920" height="185.268" viewBox="0 0 1920 185.268">
  <path id="패스_487" data-name="패스 487" d="M1989.506,100.113h31.52v8.3h-31.52Zm29.585,1.934H1991.44v4.435h27.651Z" transform="translate(-433.424 -21.81)" fill="#5a5a5a"/>
  <path id="패스_488" data-name="패스 488" d="M1989.506,115.086h31.52v8.3h-31.52Zm29.585,1.934H1991.44v4.435h27.651Z" transform="translate(-433.424 -25.072)" fill="#5a5a5a"/>
  <path id="패스_489" data-name="패스 489" d="M1989.506,130.059h31.52v8.3h-31.52Zm29.585,1.934H1991.44v4.435h27.651Z" transform="translate(-433.424 -28.334)" fill="#5a5a5a"/>
  <path id="패스_490" data-name="패스 490" d="M1989.506,145.032h31.52v8.3h-31.52Zm29.585,1.934H1991.44V151.4h27.651Z" transform="translate(-433.424 -31.596)" fill="#5a5a5a"/>
  <path id="패스_491" data-name="패스 491" d="M1989.506,160.005h31.52v8.3h-31.52Zm29.585,1.934H1991.44v4.435h27.651Z" transform="translate(-433.424 -34.858)" fill="#5a5a5a"/>
  <path id="패스_492" data-name="패스 492" d="M2011.875,174.977h14.468v8.3h-14.468Zm12.534,1.935h-10.6v4.435h10.6Z" transform="translate(-438.297 -38.12)" fill="#5a5a5a"/>
  <path id="패스_493" data-name="패스 493" d="M2011.875,189.95h14.468v8.3h-14.468Zm12.534,1.934h-10.6v4.435h10.6Z" transform="translate(-438.297 -41.382)" fill="#5a5a5a"/>
  <path id="패스_494" data-name="패스 494" d="M2011.875,204.923h14.468v8.3h-14.468Zm12.534,1.934h-10.6v4.435h10.6Z" transform="translate(-438.297 -44.644)" fill="#5a5a5a"/>
  <path id="패스_495" data-name="패스 495" d="M2011.875,219.9h14.468v8.3h-14.468Zm12.534,1.934h-10.6v4.435h10.6Z" transform="translate(-438.297 -47.906)" fill="#5a5a5a"/>
  <rect id="사각형_90" data-name="사각형 90" width="1.934" height="9.338" transform="translate(1573.395 63.329)" fill="#5a5a5a"/>
  <rect id="사각형_91" data-name="사각형 91" width="1.934" height="10.754" transform="translate(1579.845 61.913)" fill="#5a5a5a"/>
  <rect id="사각형_92" data-name="사각형 92" width="1.934" height="14.209" transform="translate(1586.295 58.457)" fill="#5a5a5a"/>
  <rect id="사각형_93" data-name="사각형 93" width="6.59" height="1.934" transform="matrix(0.894, -0.447, 0.447, 0.894, 1454.603, 104.483)" fill="#5a5a5a"/>
  <rect id="사각형_94" data-name="사각형 94" width="6.59" height="1.934" transform="matrix(0.894, -0.447, 0.447, 0.894, 1454.603, 117.511)" fill="#5a5a5a"/>
  <rect id="사각형_95" data-name="사각형 95" width="6.59" height="1.934" transform="matrix(0.894, -0.447, 0.447, 0.894, 1454.603, 124.026)" fill="#5a5a5a"/>
  <rect id="사각형_96" data-name="사각형 96" width="6.59" height="1.934" transform="matrix(0.894, -0.447, 0.447, 0.894, 1454.603, 130.54)" fill="#5a5a5a"/>
  <rect id="사각형_97" data-name="사각형 97" width="6.59" height="1.934" transform="matrix(0.894, -0.447, 0.447, 0.894, 1454.603, 137.054)" fill="#5a5a5a"/>
  <rect id="사각형_98" data-name="사각형 98" width="6.59" height="1.934" transform="matrix(0.894, -0.447, 0.447, 0.894, 1454.603, 143.569)" fill="#5a5a5a"/>
  <rect id="사각형_99" data-name="사각형 99" width="6.59" height="1.934" transform="matrix(0.894, -0.447, 0.447, 0.894, 1454.603, 156.597)" fill="#5a5a5a"/>
  <rect id="사각형_100" data-name="사각형 100" width="6.59" height="1.934" transform="translate(1454.603 163.112) rotate(-26.567)" fill="#5a5a5a"/>
  <rect id="사각형_101" data-name="사각형 101" width="6.59" height="1.934" transform="translate(1454.603 170.699) rotate(-26.567)" fill="#5a5a5a"/>
  <rect id="사각형_102" data-name="사각형 102" width="1.934" height="15.045" transform="matrix(0.187, -0.982, 0.982, 0.187, 1467.415, 103.414)" fill="#5a5a5a"/>
  <rect id="사각형_103" data-name="사각형 103" width="1.934" height="15.045" transform="matrix(0.187, -0.982, 0.982, 0.187, 1467.415, 116.443)" fill="#5a5a5a"/>
  <rect id="사각형_104" data-name="사각형 104" width="1.934" height="15.045" transform="matrix(0.187, -0.982, 0.982, 0.187, 1467.415, 129.471)" fill="#5a5a5a"/>
  <rect id="사각형_105" data-name="사각형 105" width="1.934" height="15.045" transform="translate(1467.415 135.986) rotate(-79.195)" fill="#5a5a5a"/>
  <rect id="사각형_106" data-name="사각형 106" width="1.934" height="15.045" transform="translate(1467.415 149.014) rotate(-79.195)" fill="#5a5a5a"/>
  <rect id="사각형_107" data-name="사각형 107" width="1.934" height="15.045" transform="translate(1467.415 155.529) rotate(-79.195)" fill="#5a5a5a"/>
  <rect id="사각형_108" data-name="사각형 108" width="1.934" height="76.709" transform="translate(1462.916 97.35)" fill="#5a5a5a"/>
  <path id="패스_496" data-name="패스 496" d="M2096.21,167.7h6.481v34.836h-6.481Zm-51.093-62.4v76.726h1.934v-75.61l27.821-16.061,27.819,16.061v59.348h-8.416v38.7h10.35V167.7h20.265v34.836h-9.578v1.934h11.513v-38.7h-22.2V105.3l-29.753-17.178Z" transform="translate(-445.539 -19.197)" fill="#5a5a5a"/>
  <rect id="사각형_109" data-name="사각형 109" width="26.389" height="1.935" transform="translate(1600.062 96.02) rotate(-30.008)" fill="#5a5a5a"/>
  <rect id="사각형_110" data-name="사각형 110" width="26.389" height="1.935" transform="translate(1600.062 109.214) rotate(-30.008)" fill="#5a5a5a"/>
  <rect id="사각형_111" data-name="사각형 111" width="26.389" height="1.935" transform="translate(1600.062 122.408) rotate(-30.008)" fill="#5a5a5a"/>
  <rect id="사각형_112" data-name="사각형 112" width="26.389" height="1.935" transform="translate(1600.062 135.602) rotate(-30.008)" fill="#5a5a5a"/>
  <rect id="사각형_113" data-name="사각형 113" width="26.389" height="1.935" transform="translate(1600.062 148.796) rotate(-30.008)" fill="#5a5a5a"/>
  <path id="패스_497" data-name="패스 497" d="M2098.553,93.255l-21.337-12.319-21.339,12.318V57.213l21.339-12.32,21.337,12.32ZM2057.811,58.33V89.9l19.4-11.2,19.4,11.2V58.33l-19.4-11.2Z" transform="translate(-447.883 -9.78)" fill="#5a5a5a"/>
  <rect id="사각형_114" data-name="사각형 114" width="16.242" height="1.934" transform="translate(1608.478 51.216) rotate(-30.008)" fill="#5a5a5a"/>
  <rect id="사각형_115" data-name="사각형 115" width="16.242" height="1.934" transform="translate(1608.478 58.178) rotate(-30.008)" fill="#5a5a5a"/>
  <rect id="사각형_116" data-name="사각형 116" width="16.242" height="1.934" transform="translate(1608.478 65.139) rotate(-30.008)" fill="#5a5a5a"/>
  <rect id="사각형_117" data-name="사각형 117" width="16.242" height="1.934" transform="translate(1608.478 72.101) rotate(-30.008)" fill="#5a5a5a"/>
  <path id="패스_498" data-name="패스 498" d="M2068.9,49.15V31.055l11.153-6.439,11.152,6.439V49.148l-11.152-6.439Zm1.935-16.978V45.8l9.218-5.323,9.218,5.322V32.172l-9.218-5.322Z" transform="translate(-450.72 -5.363)" fill="#5a5a5a"/>
  <rect id="사각형_118" data-name="사각형 118" width="1.934" height="134.996" transform="translate(1638.55 26.251)" fill="#5a5a5a"/>
  <rect id="사각형_119" data-name="사각형 119" width="1.934" height="63.274" transform="translate(1648.736 47.992)" fill="#5a5a5a"/>
  <rect id="사각형_120" data-name="사각형 120" width="1.934" height="62.478" transform="translate(1523.338 81.716)" fill="#5a5a5a"/>
  <rect id="사각형_121" data-name="사각형 121" width="1.934" height="90.135" transform="translate(1512.055 94.165)" fill="#5a5a5a"/>
  <rect id="사각형_122" data-name="사각형 122" width="1.934" height="57.857" transform="translate(1500.771 110.76)" fill="#5a5a5a"/>
  <rect id="사각형_123" data-name="사각형 123" width="1.934" height="103.773" transform="translate(1530.835 75.694)" fill="#5a5a5a"/>
  <path id="패스_499" data-name="패스 499" d="M2144.171,157.052h1.935V110.146h-1.935Zm21.993,26.292h1.934v-73.2h-1.934Zm-10.812,12.378h1.934V90.421h-1.934Zm0-128.122V85.814h-7.383V102.1h-9.064v15.58h-5.28V200h8.814v-1.934h-6.879V119.613h5.28v-15.58h9.064V87.748h12.83v16.286h9.065v15.58h5.28v32.709h27.24v45.738h-13.085V200h15.019V150.388h-27.24V117.679h-5.28V102.1h-9.064V85.814h-7.383V67.6Z" transform="translate(-464.821 -14.727)" fill="#5a5a5a"/>
  <rect id="사각형_124" data-name="사각형 124" width="19.489" height="1.934" transform="translate(1732.668 105.602)" fill="#5a5a5a"/>
  <rect id="사각형_125" data-name="사각형 125" width="19.489" height="1.934" transform="translate(1732.668 113.507)" fill="#5a5a5a"/>
  <rect id="사각형_126" data-name="사각형 126" width="19.489" height="1.934" transform="translate(1732.668 121.413)" fill="#5a5a5a"/>
  <rect id="사각형_127" data-name="사각형 127" width="19.489" height="1.934" transform="translate(1732.668 127.755)" fill="#5a5a5a"/>
  <rect id="사각형_128" data-name="사각형 128" width="8.334" height="1.934" transform="translate(1743.822 143.567)" fill="#5a5a5a"/>
  <rect id="사각형_129" data-name="사각형 129" width="7.757" height="1.934" transform="translate(1744.399 157.816)" fill="#5a5a5a"/>
  <rect id="사각형_130" data-name="사각형 130" width="7.757" height="1.934" transform="translate(1744.399 165.722)" fill="#5a5a5a"/>
  <rect id="사각형_131" data-name="사각형 131" width="7.757" height="1.934" transform="translate(1744.399 172.064)" fill="#5a5a5a"/>
  <rect id="사각형_132" data-name="사각형 132" width="1.934" height="104.574" transform="translate(1764.977 79.726)" fill="#5a5a5a"/>
  <rect id="사각형_133" data-name="사각형 133" width="1.934" height="97.993" transform="translate(1758.397 79.726)" fill="#5a5a5a"/>
  <path id="패스_500" data-name="패스 500" d="M2261.675,180.1h6.209v23.035h-6.209Zm-25.169-89.212-29.224,32.461V204.1h1.935V124.091l28.15-31.269h13.369V180.1h9v24.969h10.079v-26.9h-8.144v-55.52l6.209-3.585v54.26h1.935V117.943l7.089-4.093v78.908h1.935V112.733l5.076-2.931v94.3h1.934V109.8l22.245,12.843v82.423h92.769v-1.934h-90.834V121.528l-25.147-14.518-25.146,14.518v56.637h-7.07V90.887Z" transform="translate(-480.868 -19.8)" fill="#5a5a5a"/>
  <path id="패스_501" data-name="패스 501" d="M2072.611,0V183.334h-33.433v1.934h35.367V0Z" transform="translate(-444.245 0)" fill="#5a5a5a"/>
  <path id="패스_502" data-name="패스 502" d="M1477.945,174.849l8.144,0v21.119h-8.144Zm74.91-17.148h15.362v38.268h-15.362Zm15.182-86.337V84.146H1550.92v71.621h-10.908V65.508h-1.935V83.721h-14.765v16.287h-18.127v15.58h-10.559l-.156,57.33h-6.447V113.608l-24.28-4.634-9.675,4.837v82.159H0V197.9H1456v-82.9l8.02-4.008,22.067,4.211v57.708l-10.079,0V197.9h12.013V174.85l8.377,0,.155-57.33h10.565v-15.58h18.125V85.656h12.832V157.7h12.842v40.2h19.232V155.767h-17.3V86.08h17.116V72.563L1593,61.12V197.9h1.934V58Z" transform="translate(0 -12.635)" fill="#5a5a5a"/>
</svg>
