<svg xmlns="http://www.w3.org/2000/svg" xmlns:xlink="http://www.w3.org/1999/xlink" width="49.58" height="52.423" viewBox="0 0 49.58 52.423">
  <defs>
    <clipPath id="clip-path">
      <rect id="사각형_199" data-name="사각형 199" width="49.58" height="52.423" transform="translate(0 0)" fill="none"/>
    </clipPath>
  </defs>
  <g id="procedure_deposit_icon" data-name="procedure deposit icon" transform="translate(0 0)">
    <g id="그룹_270" data-name="그룹 270" clip-path="url(#clip-path)">
      <path id="패스_583" data-name="패스 583" d="M27.9,32.064h0a1.516,1.516,0,0,1-1.425-1l-3.348-9.259-3.349,9.259a1.515,1.515,0,0,1-2.85,0l-4.776-13.2A1.515,1.515,0,0,1,15,16.834L18.353,26.1l3.35-9.261a1.515,1.515,0,0,1,2.85,0l3.348,9.26,3.352-9.261a1.516,1.516,0,0,1,2.85,1.032l-4.778,13.2a1.517,1.517,0,0,1-1.425,1" fill="#ff9f0c"/>
      <path id="패스_584" data-name="패스 584" d="M33.028,24.879h-19.8a1.515,1.515,0,0,1,0-3.03h19.8a1.515,1.515,0,0,1,0,3.03" fill="#ff9f0c"/>
      <path id="패스_585" data-name="패스 585" d="M22.77,45.548A22.774,22.774,0,1,1,45.545,22.775a1.515,1.515,0,1,1-3.03,0A19.742,19.742,0,1,0,22.77,42.518H46.928a1.515,1.515,0,1,1,0,3.03H22.77Z" fill="#595656"/>
      <path id="패스_586" data-name="패스 586" d="M41.237,52.423a1.515,1.515,0,0,1-1.071-2.586l5.757-5.759L40.166,38.32a1.515,1.515,0,0,1,2.142-2.143l6.829,6.829a1.515,1.515,0,0,1,0,2.143l-6.829,6.83a1.509,1.509,0,0,1-1.071.444" fill="#595656"/>
    </g>
  </g>
</svg>
