<svg xmlns="http://www.w3.org/2000/svg" xmlns:xlink="http://www.w3.org/1999/xlink" width="52.418" height="52.423" viewBox="0 0 52.418 52.423">
  <defs>
    <clipPath id="clip-path">
      <rect id="사각형_194" data-name="사각형 194" width="52.418" height="52.423" transform="translate(0 0)" fill="none"/>
    </clipPath>
  </defs>
  <g id="procedure_consultation_icon" data-name="procedure consultation icon" transform="translate(0 0)">
    <g id="그룹_260" data-name="그룹 260" clip-path="url(#clip-path)">
      <path id="패스_559" data-name="패스 559" d="M30.48,52.423c-6.223,0-12.929-3.551-19.933-10.552C2.224,33.547-1.279,25.4.417,18.324a1.515,1.515,0,0,1,.4-.718L6.928,11.5a1.515,1.515,0,0,1,2.143,0l9.7,9.7a1.514,1.514,0,0,1,0,2.142l-4.92,4.922C13.527,30.7,15.53,33.3,17.323,35.1c2.52,2.52,4.878,3.737,6.833,3.472l4.921-4.922a1.561,1.561,0,0,1,2.143,0l9.7,9.7a1.514,1.514,0,0,1,0,2.142L34.813,51.6a1.511,1.511,0,0,1-.718.4,15.533,15.533,0,0,1-3.615.423M3.274,19.436C1.759,26.892,7.527,34.565,12.69,39.728c6.324,6.323,12.476,9.664,17.79,9.664a12.559,12.559,0,0,0,2.5-.249l4.724-4.725-7.559-7.559-4.18,4.18a1.507,1.507,0,0,1-.718.4c-3.1.742-6.553-.688-10.07-4.2-3.493-3.493-4.946-6.976-4.2-10.071a1.512,1.512,0,0,1,.4-.718l4.178-4.18L8,14.711Z" fill="#595656"/>
      <path id="패스_560" data-name="패스 560" d="M50.9,29.388a1.515,1.515,0,0,1-1.516-1.515A24.87,24.87,0,0,0,24.544,3.03a1.515,1.515,0,1,1,0-3.03A27.9,27.9,0,0,1,52.417,27.873,1.514,1.514,0,0,1,50.9,29.388" fill="#ff9f0c"/>
      <path id="패스_561" data-name="패스 561" d="M40.885,29.388a1.515,1.515,0,0,1-1.515-1.515A14.843,14.843,0,0,0,24.544,13.047a1.516,1.516,0,1,1,0-3.031A17.876,17.876,0,0,1,42.4,27.873a1.515,1.515,0,0,1-1.515,1.515" fill="#ff9f0c"/>
    </g>
  </g>
</svg>
