<svg xmlns="http://www.w3.org/2000/svg" xmlns:xlink="http://www.w3.org/1999/xlink" width="52.423" height="42.463" viewBox="0 0 52.423 42.463">
  <defs>
    <clipPath id="clip-path">
      <rect id="사각형_197" data-name="사각형 197" width="52.423" height="42.463" transform="translate(0 0)" fill="none"/>
    </clipPath>
  </defs>
  <g id="procedure_contractor_icon" data-name="procedure contractor icon" transform="translate(0 0)">
    <g id="그룹_266" data-name="그룹 266" clip-path="url(#clip-path)">
      <path id="패스_572" data-name="패스 572" d="M26.211,16.459a7.326,7.326,0,1,1,7.327-7.326,7.334,7.334,0,0,1-7.327,7.326m0-11.623a4.3,4.3,0,1,0,4.3,4.3,4.3,4.3,0,0,0-4.3-4.3" fill="#595656"/>
      <path id="패스_573" data-name="패스 573" d="M37.443,32.1a1.515,1.515,0,0,1-1.515-1.515V26.85a7.174,7.174,0,0,0-7.168-7.166h-5.1A7.175,7.175,0,0,0,16.5,26.85v3.736a1.515,1.515,0,1,1-3.03,0V26.85a10.21,10.21,0,0,1,10.2-10.2h5.1a10.209,10.209,0,0,1,10.2,10.2v3.736A1.515,1.515,0,0,1,37.443,32.1" fill="#595656"/>
      <path id="패스_574" data-name="패스 574" d="M10.028,11.841a5.92,5.92,0,1,1,5.921-5.92,5.926,5.926,0,0,1-5.921,5.92m0-8.811a2.89,2.89,0,1,0,2.89,2.891,2.894,2.894,0,0,0-2.89-2.891" fill="#595656"/>
      <path id="패스_575" data-name="패스 575" d="M1.515,23.7A1.515,1.515,0,0,1,0,22.184V19.352a8.106,8.106,0,0,1,8.1-8.1h3.864a8.106,8.106,0,0,1,8.1,8.1,1.515,1.515,0,1,1-3.03,0,5.073,5.073,0,0,0-5.067-5.067H8.1A5.073,5.073,0,0,0,3.03,19.352v2.832A1.515,1.515,0,0,1,1.515,23.7" fill="#595656"/>
      <path id="패스_576" data-name="패스 576" d="M42.4,11.841a5.92,5.92,0,1,1,5.919-5.92,5.927,5.927,0,0,1-5.919,5.92m0-8.811a2.89,2.89,0,1,0,2.89,2.891A2.895,2.895,0,0,0,42.4,3.03" fill="#595656"/>
      <path id="패스_577" data-name="패스 577" d="M50.908,23.7a1.515,1.515,0,0,1-1.515-1.515V19.352a5.073,5.073,0,0,0-5.067-5.067H40.462A5.073,5.073,0,0,0,35.4,19.352a1.515,1.515,0,1,1-3.03,0,8.106,8.106,0,0,1,8.1-8.1h3.864a8.106,8.106,0,0,1,8.1,8.1v2.832A1.515,1.515,0,0,1,50.908,23.7" fill="#595656"/>
      <path id="패스_578" data-name="패스 578" d="M37.327,42.463a1.515,1.515,0,0,1-1.071-.444L28.84,34.6a1.515,1.515,0,0,1,2.143-2.142l6.344,6.344L49.837,26.3a1.515,1.515,0,1,1,2.142,2.142L38.4,42.019a1.515,1.515,0,0,1-1.071.444" fill="#ff9f0c"/>
    </g>
  </g>
</svg>
