<svg id="Kakao_Channel_Button" data-name="Kakao Channel Button" xmlns="http://www.w3.org/2000/svg" xmlns:xlink="http://www.w3.org/1999/xlink" width="50" height="50.002" viewBox="0 0 50 50.002">
  <defs>
    <clipPath id="clip-path">
      <rect id="사각형_85" data-name="사각형 85" width="50" height="50.002" fill="none"/>
    </clipPath>
  </defs>
  <g id="그룹_98" data-name="그룹 98" clip-path="url(#clip-path)">
    <path id="패스_477" data-name="패스 477" d="M25,50A25,25,0,0,0,50,25h0A25,25,0,0,0,0,25v0A25,25,0,0,0,25,50Z" fill="#ffe600"/>
    <path id="패스_478" data-name="패스 478" d="M38.881,26.914c-8.3,0-15.024,5.311-15.024,11.867,0,4.165,2.721,7.819,6.823,9.943a.208.208,0,0,1,.106.239l-1.373,5.124a.439.439,0,0,0,.107.451.43.43,0,0,0,.307.126.437.437,0,0,0,.261-.1L36.111,50.5a.205.205,0,0,1,.144-.033,18.979,18.979,0,0,0,2.626.187c8.3,0,15.025-5.312,15.025-11.869S47.177,26.914,38.881,26.914" transform="translate(-13.358 -15.07)" fill="#381e1e"/>
    <path id="패스_479" data-name="패스 479" d="M32.607,47.886a.21.21,0,0,0-.21-.21H30.972a1.076,1.076,0,0,1-.581-.155.639.639,0,0,1-.3-.438c-.009-.05-.019-.108-.025-.168a.659.659,0,0,1,.257-.555,1.016,1.016,0,0,1,.642-.2h5a1.065,1.065,0,0,1,.58.154.646.646,0,0,1,.3.439.822.822,0,0,1,.011.163.684.684,0,0,1-.25.565,1,1,0,0,1-.639.2H34.546a.21.21,0,0,0-.21.21l0,5.424a.9.9,0,0,1-.237.651.827.827,0,0,1-.633.246.881.881,0,0,1-.553-.177.816.816,0,0,1-.291-.49.926.926,0,0,1-.015-.231Z" transform="translate(-16.836 -25.845)" fill="#ffe600"/>
    <path id="패스_480" data-name="패스 480" d="M43.4,46.386a.776.776,0,0,1,.315-.422,1,1,0,0,1,.529-.127h.416a1.088,1.088,0,0,1,.565.137.907.907,0,0,1,.358.523l2.088,6.053a3.442,3.442,0,0,1,.141.483,1.978,1.978,0,0,1,.031.208.753.753,0,0,1-.177.486.9.9,0,0,1-.8.292.7.7,0,0,1-.615-.483l-.4-1.175a.21.21,0,0,0-.2-.143H43.167a.21.21,0,0,0-.2.142l-.4,1.176a.722.722,0,0,1-.775.493.8.8,0,0,1-.511-.158.72.72,0,0,1-.265-.447A.853.853,0,0,1,41,53.24a.977.977,0,0,1,.047-.318c.032-.124.073-.25.117-.372Zm1.046,1.4h-.022l-.932,2.9a.21.21,0,0,0,.2.274h1.452a.21.21,0,0,0,.2-.272Z" transform="translate(-22.958 -25.666)" fill="#ffe600"/>
    <path id="패스_481" data-name="패스 481" d="M57.161,46.735a.908.908,0,0,1,.237-.652.834.834,0,0,1,.635-.246.857.857,0,0,1,.554.18.865.865,0,0,1,.3.718l0,5.427a.21.21,0,0,0,.21.21h2.68a1.04,1.04,0,0,1,.585.154.659.659,0,0,1,.294.44,1.088,1.088,0,0,1,.025.165.667.667,0,0,1-.256.559,1.025,1.025,0,0,1-.643.2H58.174a1.132,1.132,0,0,1-.651-.166.785.785,0,0,1-.328-.534,2.5,2.5,0,0,1-.037-.353Z" transform="translate(-32.005 -25.666)" fill="#ffe600"/>
    <path id="패스_482" data-name="패스 482" d="M70.106,46.735a.918.918,0,0,1,.235-.652.835.835,0,0,1,.634-.246.853.853,0,0,1,.553.18.8.8,0,0,1,.291.489.863.863,0,0,1,.017.228l0,2.06a.21.21,0,0,0,.368.138l2.35-2.7a1.935,1.935,0,0,1,.33-.3.645.645,0,0,1,.36-.1.886.886,0,0,1,.518.16.648.648,0,0,1,.288.422c0,.006.005.032.012.067a.29.29,0,0,0,0,.073.672.672,0,0,1-.08.329,1.563,1.563,0,0,1-.206.29L74.115,49a.21.21,0,0,0-.023.254l2.017,3.2.063.1a1.792,1.792,0,0,1,.249.5c0,.007.005.028.013.054a.363.363,0,0,0,0,.056.79.79,0,0,1-.26.665,1,1,0,0,1-.629.2.874.874,0,0,1-.432-.094,1.143,1.143,0,0,1-.339-.377l-1.851-2.979a.21.21,0,0,0-.33-.034l-.7.733a.212.212,0,0,0-.059.147l.01,1.706a.917.917,0,0,1-.238.651.833.833,0,0,1-.634.246.886.886,0,0,1-.554-.177.815.815,0,0,1-.29-.49,1.068,1.068,0,0,1-.015-.23Z" transform="translate(-39.255 -25.666)" fill="#ffe600"/>
  </g>
</svg>
