<svg xmlns="http://www.w3.org/2000/svg" xmlns:xlink="http://www.w3.org/1999/xlink" width="32" height="32" viewBox="0 0 32 32">
  <defs>
    <clipPath id="clip-path">
      <rect id="사각형_141" data-name="사각형 141" width="22.366" height="22.048" fill="#fff" stroke="#fff" stroke-width="1"/>
    </clipPath>
  </defs>
  <g id="airplane" transform="translate(-835 -5038)">
    <g id="그룹_137" data-name="그룹 137" transform="translate(-479 26.92)">
      <circle id="타원_12" data-name="타원 12" cx="16" cy="16" r="16" transform="translate(1314 5011.08)" fill="#777"/>
    </g>
    <g id="그룹_168" data-name="그룹 168" transform="translate(840 5042.54)">
      <g id="그룹_167" data-name="그룹 167" transform="translate(0 0)" clip-path="url(#clip-path)">
        <path id="패스_504" data-name="패스 504" d="M12.553,8.842a1.056,1.056,0,0,1-.688-.988V1.219a.72.72,0,0,0-1.44,0V7.853a1.056,1.056,0,0,1-.688.988L.974,12.1.7,13.042,9.193,11.6a1.054,1.054,0,0,1,1.232,1.039l.011,4.832a1.058,1.058,0,0,1-.3.854L7.888,20.569v.645l2.834-1.24a1.054,1.054,0,0,1,.846,0l2.835,1.24v-.645l-2.245-2.245a1.057,1.057,0,0,1-.3-.835q0-.055.013-.111v-4.74A1.054,1.054,0,0,1,13.1,11.6l8.491,1.444-.272-.947Z" transform="translate(0.038 0.028)" fill="#fff" stroke="#fff" stroke-width="1"/>
        <path id="패스_505" data-name="패스 505" d="M12.553,8.842a1.056,1.056,0,0,1-.688-.988V1.219a.72.72,0,0,0-1.44,0V7.853a1.056,1.056,0,0,1-.688.988L.974,12.1.7,13.042,9.193,11.6a1.054,1.054,0,0,1,1.232,1.039l.011,4.832a1.058,1.058,0,0,1-.3.854L7.888,20.569v.645l2.834-1.24a1.054,1.054,0,0,1,.846,0l2.835,1.24v-.645l-2.245-2.245a1.057,1.057,0,0,1-.3-.835q0-.055.013-.111v-4.74A1.054,1.054,0,0,1,13.1,11.6l8.491,1.444-.272-.947Z" transform="translate(0.038 0.028)" fill="#fff" stroke="#fff" stroke-miterlimit="10" stroke-width="1"/>
      </g>
    </g>
  </g>
</svg>
