<svg id="Features_reason_3_icon" data-name="Features reason 3 icon" xmlns="http://www.w3.org/2000/svg" xmlns:xlink="http://www.w3.org/1999/xlink" width="88.913" height="75.453" viewBox="0 0 88.913 75.453">
  <defs>
    <clipPath id="clip-path">
      <rect id="사각형_203" data-name="사각형 203" width="88.913" height="75.453" fill="none"/>
    </clipPath>
  </defs>
  <g id="그룹_281" data-name="그룹 281" transform="translate(0 0)" clip-path="url(#clip-path)">
    <path id="패스_602" data-name="패스 602" d="M11.489,40.3a2.57,2.57,0,0,1-2.57-2.57A37.744,37.744,0,0,1,73.351,11.037a2.569,2.569,0,0,1-3.634,3.634A32.6,32.6,0,0,0,14.059,37.727a2.57,2.57,0,0,1-2.57,2.57" transform="translate(-2.206 0)" fill="#595656"/>
    <path id="패스_603" data-name="패스 603" d="M50.049,87.007A37.621,37.621,0,0,1,23.362,75.972,2.57,2.57,0,1,1,27,72.337,32.6,32.6,0,0,0,82.653,49.279a2.57,2.57,0,1,1,5.14,0A37.712,37.712,0,0,1,50.049,87.007" transform="translate(-5.593 -11.555)" fill="#595656"/>
    <path id="패스_604" data-name="패스 604" d="M9.283,53.04a2.559,2.559,0,0,1-1.817-.753L.752,45.574A2.569,2.569,0,0,1,4.386,41.94l4.9,4.9,4.9-4.9a2.569,2.569,0,0,1,3.634,3.634L11.1,52.288a2.559,2.559,0,0,1-1.817.753" transform="translate(0 -10.189)" fill="#595656"/>
    <path id="패스_605" data-name="패스 605" d="M109.465,55.169a2.56,2.56,0,0,1-1.817-.753l-4.9-4.894-4.9,4.894a2.57,2.57,0,1,1-3.634-3.634l6.713-6.71a2.568,2.568,0,0,1,3.634,0l6.713,6.71a2.569,2.569,0,0,1-1.817,4.387" transform="translate(-23.122 -10.716)" fill="#595656"/>
    <path id="패스_606" data-name="패스 606" d="M51.572,65.436a22.806,22.806,0,1,1,22.809-22.8,22.832,22.832,0,0,1-22.809,22.8m0-40.472A17.666,17.666,0,1,0,69.242,42.631,17.687,17.687,0,0,0,51.572,24.964" transform="translate(-7.116 -4.904)" fill="#ff9f0c"/>
    <path id="패스_607" data-name="패스 607" d="M60.228,57.835h0a1.283,1.283,0,0,1-1.208-.848l-3.41-9.426L52.2,56.987a1.285,1.285,0,0,1-2.417,0L45.165,44.22a1.285,1.285,0,1,1,2.417-.873l3.41,9.426,3.41-9.426a1.285,1.285,0,0,1,2.417,0l3.41,9.426,3.411-9.426a1.285,1.285,0,1,1,2.417.873L61.437,56.987a1.285,1.285,0,0,1-1.209.848" transform="translate(-11.154 -10.513)" fill="#595656"/>
    <path id="패스_608" data-name="패스 608" d="M65.075,52.8H45.924a1.285,1.285,0,0,1,0-2.57H65.075a1.285,1.285,0,0,1,0,2.57" transform="translate(-11.043 -12.425)" fill="#595656"/>
  </g>
</svg>
