<svg xmlns="http://www.w3.org/2000/svg" xmlns:xlink="http://www.w3.org/1999/xlink" width="83.484" height="69.843" viewBox="0 0 83.484 69.843">
  <defs>
    <clipPath id="clip-path">
      <rect id="사각형_201" data-name="사각형 201" width="83.484" height="69.843" fill="none"/>
    </clipPath>
  </defs>
  <g id="Features_reason_2_icon" data-name="Features reason 2 icon" transform="translate(0 0)">
    <g id="그룹_277" data-name="그룹 277" transform="translate(0 0)" clip-path="url(#clip-path)">
      <path id="패스_591" data-name="패스 591" d="M71.908,63.443H55.324a2.413,2.413,0,1,1,0-4.826H71.908a6.758,6.758,0,0,0,6.75-6.751V11.577a6.758,6.758,0,0,0-6.75-6.752H11.576a6.758,6.758,0,0,0-6.75,6.752V51.867a6.758,6.758,0,0,0,6.75,6.751H28.16a2.413,2.413,0,0,1,0,4.826H11.576A11.589,11.589,0,0,1,0,51.867V11.577A11.589,11.589,0,0,1,11.576,0H71.908A11.589,11.589,0,0,1,83.484,11.577V51.867A11.589,11.589,0,0,1,71.908,63.443" transform="translate(0 0)" fill="#595656"/>
      <path id="패스_592" data-name="패스 592" d="M80.178,31.5H4.573a2.413,2.413,0,0,1,0-4.826H80.178a2.413,2.413,0,0,1,0,4.826" transform="translate(-0.634 -7.826)" fill="#595656"/>
      <path id="패스_593" data-name="패스 593" d="M50.757,82.21A20.024,20.024,0,1,1,70.783,62.185,20.047,20.047,0,0,1,50.757,82.21m0-35.223a15.2,15.2,0,1,0,15.2,15.2,15.216,15.216,0,0,0-15.2-15.2" transform="translate(-9.015 -12.367)" fill="#ff9f0c"/>
      <path id="패스_594" data-name="패스 594" d="M55.387,71.995a2.414,2.414,0,0,1-1.706-.707l-5.429-5.429a2.413,2.413,0,0,1,3.413-3.412l3.723,3.722L67.152,54.4a2.413,2.413,0,1,1,3.412,3.413L57.093,71.288a2.414,2.414,0,0,1-1.706.707" transform="translate(-13.946 -15.751)" fill="#ff9f0c"/>
    </g>
  </g>
</svg>
