<svg id="Features_reason_1_icon" data-name="Features reason 1 icon" xmlns="http://www.w3.org/2000/svg" xmlns:xlink="http://www.w3.org/1999/xlink" width="70.603" height="81.41" viewBox="0 0 70.603 81.41">
  <defs>
    <clipPath id="clip-path">
      <rect id="사각형_200" data-name="사각형 200" width="70.603" height="81.41" fill="none"/>
    </clipPath>
  </defs>
  <g id="그룹_275" data-name="그룹 275" clip-path="url(#clip-path)">
    <path id="패스_587" data-name="패스 587" d="M51,53.06h0a2.351,2.351,0,0,1-2.213-1.553l-6.4-17.694-6.4,17.7a2.353,2.353,0,0,1-4.425,0L22.949,27.7a2.353,2.353,0,1,1,4.425-1.6l6.4,17.7,6.4-17.7a2.353,2.353,0,0,1,4.425,0l6.4,17.7,6.4-17.7a2.353,2.353,0,1,1,4.425,1.6L53.217,51.508A2.352,2.352,0,0,1,51,53.06" transform="translate(-7.091 -7.63)" fill="#ff9f0c"/>
    <path id="패스_588" data-name="패스 588" d="M59.968,44.991H24.248a2.353,2.353,0,0,1,0-4.706h35.72a2.353,2.353,0,1,1,0,4.706" transform="translate(-6.807 -12.524)" fill="#ff9f0c"/>
    <path id="패스_589" data-name="패스 589" d="M4.993,85.68a2.353,2.353,0,1,1,0-4.706H67.25a2.353,2.353,0,0,1,0,4.706" transform="translate(-0.821 -25.174)" fill="#595656"/>
    <path id="패스_590" data-name="패스 590" d="M31.46,81.411a2.35,2.35,0,0,1-1.522-.559L23.8,75.65l-6.135,5.2a2.352,2.352,0,0,1-3.044,0l-6.134-5.2L3.874,79.561A2.353,2.353,0,0,1,0,77.767V2.354A2.353,2.353,0,0,1,2.353,0h65.9A2.353,2.353,0,0,1,70.6,2.354V73.848a2.352,2.352,0,0,1-.833,1.8l-6.154,5.21a2.357,2.357,0,0,1-3.041,0l-6.141-5.2-6.135,5.2a2.352,2.352,0,0,1-3.044,0l-6.137-5.2-6.137,5.2a2.35,2.35,0,0,1-1.522.559m22.973-11.2a2.349,2.349,0,0,1,1.521.557l6.142,5.2,3.8-3.217V4.707H4.706v67.98l2.262-1.916a2.353,2.353,0,0,1,3.043,0l6.132,5.2,6.136-5.2a2.354,2.354,0,0,1,3.044,0l6.137,5.2,6.137-5.2a2.352,2.352,0,0,1,3.042,0l6.137,5.2,6.134-5.2a2.351,2.351,0,0,1,1.522-.558" transform="translate(0 0)" fill="#595656"/>
  </g>
</svg>
