<svg xmlns="http://www.w3.org/2000/svg" xmlns:xlink="http://www.w3.org/1999/xlink" width="51.453" height="52.423" viewBox="0 0 51.453 52.423">
  <defs>
    <clipPath id="clip-path">
      <rect id="사각형_195" data-name="사각형 195" width="51.453" height="52.423" transform="translate(0 0)" fill="none"/>
    </clipPath>
  </defs>
  <g id="Procedure_examine_icon" data-name="Procedure examine icon" transform="translate(0 0)">
    <g id="그룹_262" data-name="그룹 262" clip-path="url(#clip-path)">
      <path id="패스_562" data-name="패스 562" d="M41.749,52.423H1.516A1.515,1.515,0,0,1,0,50.908V1.515A1.516,1.516,0,0,1,1.516,0H41.749a1.515,1.515,0,0,1,1.515,1.515V28.3a1.515,1.515,0,0,1-3.03,0V3.031H3.031V49.393h37.2v-4.81a1.515,1.515,0,0,1,3.03,0v6.325a1.515,1.515,0,0,1-1.515,1.515" fill="#595656"/>
      <path id="패스_563" data-name="패스 563" d="M39.136,45.965a9.715,9.715,0,1,1,9.716-9.716,9.727,9.727,0,0,1-9.716,9.716m0-16.4a6.686,6.686,0,1,0,6.685,6.685,6.693,6.693,0,0,0-6.685-6.685" fill="#595656"/>
      <path id="패스_564" data-name="패스 564" d="M49.938,48.568a1.511,1.511,0,0,1-1.072-.444l-4.891-4.892a1.515,1.515,0,0,1,2.143-2.143l4.892,4.893a1.516,1.516,0,0,1-1.072,2.586" fill="#595656"/>
      <path id="패스_565" data-name="패스 565" d="M31.339,14.957H11.924a1.515,1.515,0,0,1,0-3.03H31.339a1.515,1.515,0,0,1,0,3.03" fill="#ff9f0c"/>
      <path id="패스_566" data-name="패스 566" d="M31.339,22.785H11.924a1.515,1.515,0,0,1,0-3.03H31.339a1.515,1.515,0,0,1,0,3.03" fill="#ff9f0c"/>
      <path id="패스_567" data-name="패스 567" d="M24.016,30.613H11.925a1.515,1.515,0,1,1,0-3.03H24.016a1.515,1.515,0,0,1,0,3.03" fill="#ff9f0c"/>
    </g>
  </g>
</svg>
