<svg xmlns="http://www.w3.org/2000/svg" xmlns:xlink="http://www.w3.org/1999/xlink" width="45.22" height="52.423" viewBox="0 0 45.22 52.423">
  <defs>
    <clipPath id="clip-path">
      <rect id="사각형_196" data-name="사각형 196" width="45.22" height="52.423" transform="translate(0 0)" fill="none"/>
    </clipPath>
  </defs>
  <g id="procedure_document_icon" data-name="procedure document icon" transform="translate(0 0)">
    <g id="그룹_264" data-name="그룹 264" clip-path="url(#clip-path)">
      <path id="패스_568" data-name="패스 568" d="M33.929,52.423H1.515A1.515,1.515,0,0,1,0,50.908V11.291A1.515,1.515,0,0,1,1.515,9.776H33.929a1.515,1.515,0,0,1,1.516,1.515V50.908a1.515,1.515,0,0,1-1.516,1.515m-30.9-3.03H32.414V12.806H3.03Z" fill="#595656"/>
      <path id="패스_569" data-name="패스 569" d="M43.705,42.648H38.817a1.515,1.515,0,1,1,0-3.03H42.19V3.031H12.806V6.4a1.515,1.515,0,1,1-3.03,0V1.516A1.515,1.515,0,0,1,11.291,0H43.705A1.515,1.515,0,0,1,45.22,1.516V41.133a1.515,1.515,0,0,1-1.515,1.515" fill="#595656"/>
      <path id="패스_570" data-name="패스 570" d="M38.817,47.536H33.93a1.515,1.515,0,1,1,0-3.03H37.3V7.918H7.919v3.373a1.516,1.516,0,0,1-3.031,0V6.4A1.515,1.515,0,0,1,6.4,4.888H38.817A1.515,1.515,0,0,1,40.332,6.4V46.021a1.515,1.515,0,0,1-1.515,1.515" fill="#595656"/>
      <path id="패스_571" data-name="패스 571" d="M15.828,37.929a1.509,1.509,0,0,1-1.071-.444L9.7,32.435a1.515,1.515,0,0,1,2.143-2.143l3.98,3.979,7.641-7.641a1.515,1.515,0,1,1,2.143,2.143L16.9,37.485a1.509,1.509,0,0,1-1.071.444" fill="#ff9f0c"/>
    </g>
  </g>
</svg>
