<svg xmlns="http://www.w3.org/2000/svg" xmlns:xlink="http://www.w3.org/1999/xlink" width="39.285" height="52.423" viewBox="0 0 39.285 52.423">
  <defs>
    <clipPath id="clip-path">
      <rect id="사각형_198" data-name="사각형 198" width="39.285" height="52.423" transform="translate(0 0)" fill="none"/>
    </clipPath>
  </defs>
  <g id="procedure_check_icon" data-name="procedure check icon" transform="translate(0 0)">
    <g id="그룹_268" data-name="그룹 268" clip-path="url(#clip-path)">
      <path id="패스_579" data-name="패스 579" d="M37.77,52.423H1.515A1.515,1.515,0,0,1,0,50.908V7A1.515,1.515,0,0,1,1.515,5.488H37.77A1.515,1.515,0,0,1,39.285,7V50.908a1.515,1.515,0,0,1-1.515,1.515M3.03,49.393H36.254V8.519H3.03Z" fill="#595656"/>
      <path id="패스_580" data-name="패스 580" d="M24.631,8.02a1.515,1.515,0,0,1-1.515-1.515,3.474,3.474,0,1,0-6.948,0,1.515,1.515,0,1,1-3.03,0,6.5,6.5,0,1,1,13.008,0A1.515,1.515,0,0,1,24.631,8.02" fill="#595656"/>
      <path id="패스_581" data-name="패스 581" d="M26.839,38.585H12.445A1.515,1.515,0,0,1,10.93,37.07V22.676a1.515,1.515,0,0,1,1.515-1.515H26.839a1.515,1.515,0,0,1,1.516,1.515V37.07a1.515,1.515,0,0,1-1.516,1.515m-12.878-3.03H25.325V24.191H13.961Z" fill="#ff9f0c"/>
      <path id="패스_582" data-name="패스 582" d="M21.076,33.471A1.509,1.509,0,0,1,20,33.027l-3.6-3.6a1.515,1.515,0,0,1,2.143-2.143l2.527,2.527,7.073-7.073a1.515,1.515,0,0,1,2.142,2.143l-8.144,8.144a1.509,1.509,0,0,1-1.071.444" fill="#595656"/>
    </g>
  </g>
</svg>
