<svg id="Features_reason_4_icon" data-name="Features reason 4 icon" xmlns="http://www.w3.org/2000/svg" xmlns:xlink="http://www.w3.org/1999/xlink" width="76.453" height="85.119" viewBox="0 0 76.453 85.119">
  <defs>
    <clipPath id="clip-path">
      <rect id="사각형_204" data-name="사각형 204" width="76.453" height="85.119" fill="none"/>
    </clipPath>
  </defs>
  <g id="그룹_283" data-name="그룹 283" clip-path="url(#clip-path)">
    <path id="패스_609" data-name="패스 609" d="M38.227,85.119a2.421,2.421,0,0,1-.637-.084C14.4,78.828,0,61.355,0,39.432V13.865a2.459,2.459,0,0,1,3.074-2.383,35.116,35.116,0,0,0,8.754,1.1c11.058,0,20.2-7.439,24.665-11.873a2.458,2.458,0,0,1,3.467,0c4.465,4.434,13.608,11.873,24.665,11.873a35.116,35.116,0,0,0,8.754-1.1,2.459,2.459,0,0,1,3.074,2.383V39.432c0,21.922-14.4,39.4-37.59,45.6a2.421,2.421,0,0,1-.637.084M4.92,16.91V39.432c0,19.69,12.435,34.854,33.306,40.676C59.1,74.286,71.533,59.123,71.533,39.432V16.91a40.231,40.231,0,0,1-6.908.6c-11.485,0-20.953-6.688-26.4-11.653-5.446,4.965-14.914,11.653-26.4,11.653a40.237,40.237,0,0,1-6.908-.6" transform="translate(0 0)" fill="#595656"/>
    <path id="패스_610" data-name="패스 610" d="M58.124,60.573H38.443a2.46,2.46,0,1,1,0-4.92H58.124a2.46,2.46,0,1,1,0,4.92" transform="translate(-10.057 -15.555)" fill="#ff9f0c"/>
    <path id="패스_611" data-name="패스 611" d="M52.1,66.6a2.461,2.461,0,0,1-2.461-2.461V44.455a2.461,2.461,0,0,1,4.921,0V64.136A2.461,2.461,0,0,1,52.1,66.6" transform="translate(-13.874 -11.737)" fill="#ff9f0c"/>
  </g>
</svg>
