<svg id="Company_Introduction_Approval_Icon" data-name="Company Introduction_Approval_Icon" xmlns="http://www.w3.org/2000/svg" xmlns:xlink="http://www.w3.org/1999/xlink" width="51.164" height="45.877" viewBox="0 0 51.164 45.877">
  <defs>
    <clipPath id="clip-path">
      <rect id="사각형_33" data-name="사각형 33" width="51.164" height="45.877" fill="none"/>
    </clipPath>
  </defs>
  <g id="그룹_33" data-name="그룹 33" clip-path="url(#clip-path)">
    <path id="패스_231" data-name="패스 231" d="M50.156,45.877H32.474A15.356,15.356,0,0,1,21.321,40.06a1.34,1.34,0,0,1,2.144-1.608A12.856,12.856,0,0,0,32.512,43.2H50.156a2.661,2.661,0,0,0,1.042-5.11,1.34,1.34,0,0,1,.526-2.572h2.033A2.66,2.66,0,0,0,54.8,30.408a1.34,1.34,0,0,1,.525-2.572h.833a2.661,2.661,0,0,0,0-5.322H53a1.34,1.34,0,0,1-.526-2.572,2.661,2.661,0,0,0-1.042-5.109H40.314A1.34,1.34,0,0,1,39.09,12.95c.016-.037,1.706-3.946.734-7.416a3.683,3.683,0,0,0-2.332-2.761,2.6,2.6,0,0,0-2.506.661c-.533.495-.552,1.088-.471,2.533a8.829,8.829,0,0,1-1.609,6.41C29.966,16.3,22.3,22.73,21.973,23a1.34,1.34,0,0,1-1.72-2.055c.077-.065,7.756-6.507,10.509-10.179a6.2,6.2,0,0,0,1.077-4.652c-.085-1.523-.182-3.248,1.323-4.645A5.292,5.292,0,0,1,38.219.193,6.277,6.277,0,0,1,42.4,4.811a14.046,14.046,0,0,1-.216,7.344h9.247a5.342,5.342,0,0,1,4.8,7.681,5.34,5.34,0,0,1,2.072,10.227,5.343,5.343,0,0,1-3.414,8.012,5.342,5.342,0,0,1-4.739,7.8" transform="translate(-10.332 0)" fill="#595656"/>
    <rect id="사각형_32" data-name="사각형 32" width="10.721" height="25.923" transform="translate(1.34 17.654)" fill="#ff8265"/>
    <path id="패스_232" data-name="패스 232" d="M12.061,62.769H1.34A1.34,1.34,0,0,1,0,61.429V35.506a1.34,1.34,0,0,1,1.34-1.339H12.061a1.34,1.34,0,0,1,1.34,1.339V61.429a1.34,1.34,0,0,1-1.34,1.339M2.68,60.09h8.041V36.846H2.68Z" transform="translate(0 -17.853)" fill="#ff8265"/>
    <path id="패스_233" data-name="패스 233" d="M90.508,60.975h-3.04a1.34,1.34,0,1,1,0-2.679h3.04a1.34,1.34,0,1,1,0,2.679" transform="translate(-45.004 -30.461)" fill="#595656"/>
    <path id="패스_234" data-name="패스 234" d="M9.963,48.059a3.26,3.26,0,1,1,3.26-3.26,3.263,3.263,0,0,1-3.26,3.26m0-3.841a.581.581,0,1,0,.58.581.582.582,0,0,0-.58-.581" transform="translate(-3.502 -21.705)" fill="#595656"/>
  </g>
</svg>
